<?xml version="1.0" encoding="iso-8859-1"?>
<!-- Generator: Adobe Illustrator 18.0.0, SVG Export Plug-In . SVG Version: 6.00 Build 0)  -->
<!DOCTYPE svg PUBLIC "-//W3C//DTD SVG 1.1//EN" "http://www.w3.org/Graphics/SVG/1.1/DTD/svg11.dtd">
<svg xmlns="http://www.w3.org/2000/svg" xmlns:xlink="http://www.w3.org/1999/xlink" version="1.1" id="Capa_1" x="0px" y="0px" viewBox="0 0 488.545 488.545" style="enable-background:new 0 0 488.545 488.545;" xml:space="preserve" width="512px" height="512px">
<path d="M178.538,268.316c2.844,16.189,30.544,95.893,113.261,160.705c-8.949,5.589-19.288,7.589-29.786,7.589  c-42.56,0-91.933-31.24-132.042-83.57c-29.548-38.545-47.429-83.279-56.393-127.119l61.831,21.684L68.25,190.99  c-3.874-38.537-1.107-74.82,6.655-103.586c24.632,49.288,67.318,75.208,108.882,100.439c18.893,11.47,38.101,23.406,56.235,37.509  l25.707,82.425l3.447-56.316c33.453,35.194,61.373,80.378,53.232,128.027c4.727,3.298,22.054,15.059,28.631,19.202  c18.972-63.468-15.145-125.514-61.974-173.353c-27.619-28.221-58.559-47.004-88.471-65.168  c-50.371-30.576-93.863-56.986-108.866-121.427L82.715,0L62.116,34.023C16.71,109.016,22.86,266.561,104.264,372.737  c46.212,60.267,105.181,96.251,157.749,96.251c24.996,0,43.193-7.763,57.863-20.672c47.904,29.106,91.176,39.809,134.778,40.228  C412.031,466.348,312.099,434.396,178.538,268.316z" fill="#d1b280"/>
<g>
</g>
<g>
</g>
<g>
</g>
<g>
</g>
<g>
</g>
<g>
</g>
<g>
</g>
<g>
</g>
<g>
</g>
<g>
</g>
<g>
</g>
<g>
</g>
<g>
</g>
<g>
</g>
<g>
</g>
</svg>
